<?xml version="1.0" encoding="UTF-8" standalone="no"?>
<!-- Created with Inkscape (http://www.inkscape.org/) -->

<svg
   width="210mm"
   height="297mm"
   viewBox="0 0 210 297"
   version="1.1"
   id="svg5"
   xml:space="preserve"
   inkscape:version="1.2.2 (b0a8486541, 2022-12-01)"
   sodipodi:docname="retornna_logo_1.svg"
   xmlns:inkscape="http://www.inkscape.org/namespaces/inkscape"
   xmlns:sodipodi="http://sodipodi.sourceforge.net/DTD/sodipodi-0.dtd"
   xmlns:xlink="http://www.w3.org/1999/xlink"
   xmlns="http://www.w3.org/2000/svg"
   xmlns:svg="http://www.w3.org/2000/svg"><sodipodi:namedview
     id="namedview7"
     pagecolor="#505050"
     bordercolor="#eeeeee"
     borderopacity="1"
     inkscape:showpageshadow="0"
     inkscape:pageopacity="0"
     inkscape:pagecheckerboard="0"
     inkscape:deskcolor="#505050"
     inkscape:document-units="mm"
     showgrid="false"
     inkscape:zoom="1"
     inkscape:cx="453"
     inkscape:cy="554.5"
     inkscape:window-width="2494"
     inkscape:window-height="1371"
     inkscape:window-x="0"
     inkscape:window-y="0"
     inkscape:window-maximized="1"
     inkscape:current-layer="layer4"><inkscape:grid
       type="xygrid"
       id="grid1472" /></sodipodi:namedview><defs
     id="defs2"><inkscape:path-effect
       effect="spiro"
       id="path-effect34434"
       is_visible="true"
       lpeversion="1" /><linearGradient
       inkscape:collect="always"
       id="linearGradient30717"><stop
         style="stop-color:#c4d4d3;stop-opacity:1;"
         offset="0"
         id="stop30713" /><stop
         style="stop-color:#b6e2df;stop-opacity:0;"
         offset="1"
         id="stop30715" /></linearGradient><linearGradient
       id="linearGradient30629"
       inkscape:swatch="solid"><stop
         style="stop-color:#c4d4d3;stop-opacity:1;"
         offset="0"
         id="stop30627" /></linearGradient><linearGradient
       id="linearGradient30623"
       inkscape:swatch="solid"><stop
         style="stop-color:#c4d4d3;stop-opacity:1;"
         offset="0"
         id="stop30621" /></linearGradient><linearGradient
       id="linearGradient18163"
       inkscape:swatch="gradient"><stop
         style="stop-color:#a3d1cd;stop-opacity:1;"
         offset="0"
         id="stop18159" /><stop
         style="stop-color:#ecf1eb;stop-opacity:0;"
         offset="1"
         id="stop18161" /></linearGradient><rect
       x="221.38972"
       y="922.45644"
       width="204.6701"
       height="78.99121"
       id="rect8468" /><radialGradient
       inkscape:collect="always"
       xlink:href="#linearGradient30717"
       id="radialGradient30723"
       cx="105.15172"
       cy="148.547"
       fx="105.15172"
       fy="148.547"
       r="104.96052"
       gradientTransform="matrix(1.8081649,0.00400592,-0.00502696,2.2690349,-84.233189,-188.93256)"
       gradientUnits="userSpaceOnUse" /></defs><g
     inkscape:groupmode="layer"
     id="layer2"
     inkscape:label="Capa 2"
     style="display:inline"><rect
       style="fill:url(#radialGradient30723);fill-opacity:1;stroke-width:0.751001;stroke-dasharray:none;paint-order:stroke fill markers"
       id="rect11666"
       width="209.92104"
       height="296.65164"
       x="0.1912028"
       y="0.22117513"
       inkscape:label="rect11666" /></g><g
     inkscape:groupmode="layer"
     id="layer3"
     inkscape:label="plantilla"
     style="display:inline"><g
       transform="matrix(0.03527778,0,0,-0.03527778,-77.524645,328.77155)"
       fill="#000000"
       stroke="none"
       id="g2099"
       style="fill:#000000;fill-opacity:1"><path
         d="m 3065,8526 c -41,-18 -70,-81 -60,-132 10,-55 62,-104 111,-104 32,0 44,7 80,45 l 42,46 63,-10 c 34,-6 67,-7 73,-4 17,10 -100,-115 -135,-144 -17,-14 -90,-92 -162,-172 -73,-80 -189,-204 -258,-276 -193,-199 -203,-212 -201,-248 1,-18 5,-218 8,-446 6,-407 6,-414 -15,-441 l -20,-28 28,-31 c 18,-19 39,-31 54,-31 48,0 74,72 42,114 -13,17 -15,84 -15,427 v 406 l 25,37 c 30,44 344,391 545,602 82,86 156,171 164,188 l 15,33 122,6 c 67,4 277,7 466,7 h 344 l 34,-36 c 29,-30 39,-35 71,-32 51,4 79,43 79,108 0,100 -101,149 -160,78 l -27,-32 h -573 l -574,-1 -33,32 c -29,28 -76,54 -96,53 -4,-1 -21,-7 -37,-14 z m 1453,-125 c 3,-8 -1,-12 -9,-9 -7,2 -15,10 -17,17 -3,8 1,12 9,9 7,-2 15,-10 17,-17 z"
         id="path1877"
         style="fill:#0d2334;fill-opacity:1" /><path
         d="m 5885,8523 c -60,-15 -124,-101 -125,-167 0,-51 44,-112 94,-131 71,-27 110,-15 177,55 l 57,59 343,6 c 189,3 385,7 434,10 l 90,4 200,-197 c 111,-109 213,-206 227,-217 l 27,-20 2,-636 c 3,-586 1,-638 -14,-654 -19,-19 -13,-37 26,-73 53,-50 111,2 88,78 -8,26 -11,225 -11,642 0,333 -3,625 -6,649 -6,41 -15,51 -131,154 -68,61 -163,153 -210,205 -47,52 -97,108 -111,124 l -26,28 -477,-7 -477,-7 -37,41 c -31,34 -91,65 -115,60 -3,-1 -14,-4 -25,-6 z m 63,-115 c 19,-19 14,-73 -9,-94 -24,-21 -45,-13 -68,28 -13,23 -13,29 2,52 19,28 54,35 75,14 z"
         id="path1879"
         style="fill:#0d2334;fill-opacity:1" /><path
         d="m 7517,8516 c -52,-19 -73,-40 -93,-92 -22,-59 -15,-140 16,-184 71,-100 230,-84 288,30 27,55 28,89 2,140 -46,90 -134,134 -213,106 z m 108,-121 c 30,-30 31,-54 4,-89 -39,-50 -129,-20 -129,44 0,61 81,90 125,45 z"
         id="path1881"
         style="fill:#0d2334;fill-opacity:1" /><path
         d="m 4670,8495 c -9,-11 -11,-116 -9,-453 4,-482 3,-476 63,-470 l 31,3 v 68 c -4,836 -4,826 -25,847 -24,24 -43,25 -60,5 z"
         id="path1883"
         style="fill:#0d2334;fill-opacity:1" /><path
         d="m 5046,8494 c -20,-19 -18,31 -16,-439 1,-349 4,-402 17,-417 20,-22 27,-22 47,-2 14,13 16,66 16,429 0,363 -2,416 -16,429 -8,9 -19,16 -24,16 -5,0 -16,-7 -24,-16 z"
         id="path1885"
         style="fill:#032b44;fill-opacity:1" /><path
         d="m 2678,8491 c -49,-16 -96,-51 -120,-89 -19,-30 -23,-51 -23,-114 0,-69 3,-81 30,-119 39,-55 80,-79 148,-86 69,-7 115,8 161,54 74,74 79,189 13,275 -52,67 -141,100 -209,79 z m 126,-131 c 49,-54 50,-98 2,-146 -54,-54 -115,-46 -155,20 -25,39 -27,76 -6,116 19,37 41,49 86,50 30,0 43,-7 73,-40 z"
         id="path1887"
         style="fill:#0d2334;fill-opacity:1" /><path
         d="m 4852,8488 c -15,-15 -18,-812 -2,-852 10,-28 47,-35 68,-14 13,13 14,305 3,673 l -6,200 -25,3 c -14,2 -31,-3 -38,-10 z"
         id="path1889"
         style="fill:#0d2334;fill-opacity:1" /><path
         d="m 5210,8485 c -10,-12 -11,-108 -7,-431 3,-231 9,-420 14,-425 19,-19 53,-18 63,1 14,26 14,825 0,851 -13,23 -52,25 -70,4 z"
         id="path1891"
         style="fill:#032b44;fill-opacity:1" /><path
         d="m 5396,8487 c -16,-12 -18,-42 -16,-442 0,-235 3,-431 5,-435 9,-15 57,-21 72,-9 12,11 13,71 8,443 -6,376 -9,433 -23,444 -20,15 -24,15 -46,-1 z"
         id="path1893"
         style="fill:#0d2334;fill-opacity:1" /><path
         d="m 5579,8481 c -23,-18 -23,-19 -21,-237 1,-121 5,-294 8,-386 5,-122 3,-180 -6,-213 -12,-45 -12,-47 15,-75 16,-17 34,-30 42,-30 33,0 36,39 34,479 -2,364 -5,440 -17,459 -18,27 -25,27 -55,3 z"
         id="path1895"
         style="fill:#0d2334;fill-opacity:1" /><path
         d="m 7175,8475 c -14,-13 -25,-31 -25,-39 0,-29 20,-65 44,-81 23,-15 27,-15 56,0 27,14 50,48 50,75 0,5 -12,22 -26,39 -32,38 -66,40 -99,6 z"
         id="path1897"
         style="fill:#0d2334;fill-opacity:1" /><path
         d="m 3509,8198 c -12,-18 -88,-100 -169,-183 -171,-176 -336,-354 -445,-480 l -77,-90 6,-125 c 9,-197 10,-653 2,-673 -16,-34 16,-97 48,-97 7,0 25,9 40,21 29,23 34,62 11,93 -13,17 -15,80 -15,387 v 368 l 93,108 c 113,130 334,363 435,459 41,38 89,90 109,117 l 35,47 h 395 c 340,0 404,-2 449,-16 66,-21 84,-15 84,29 0,64 14,62 -505,65 l -473,3 z"
         id="path1899"
         style="fill:#0d2334;fill-opacity:1" /><path
         d="m 6178,8220 c -59,-8 -82,-19 -99,-52 -8,-15 -5,-20 13,-27 13,-4 196,-5 407,0 212,4 390,5 397,1 7,-4 72,-77 145,-162 73,-85 145,-164 159,-177 l 27,-22 6,-562 c 5,-490 4,-563 -9,-576 -19,-19 -10,-51 22,-80 31,-28 35,-28 69,-2 24,20 26,26 20,63 -4,23 -9,302 -12,621 l -3,580 -73,75 c -41,41 -120,129 -178,195 -57,66 -108,123 -114,127 -13,10 -702,8 -777,-2 z"
         id="path1901"
         style="fill:#032b44;fill-opacity:1" /><path
         d="m 5875,8116 c -37,-17 -80,-62 -94,-99 -16,-42 -13,-124 5,-163 31,-64 132,-101 191,-70 41,21 80,69 94,114 l 11,37 360,-1 h 360 l 72,-75 c 39,-41 94,-99 121,-128 l 50,-54 5,-506 c 5,-426 4,-511 -8,-538 -14,-29 -13,-33 7,-62 27,-38 59,-40 91,-7 18,20 21,31 14,53 -4,15 -9,268 -11,562 l -3,534 -103,111 c -57,61 -116,128 -132,149 -47,63 -53,64 -310,56 -126,-4 -297,-5 -378,-1 -141,5 -149,6 -164,28 -35,54 -125,84 -178,60 z m 94,-120 c 18,-19 22,-31 16,-53 -10,-40 -34,-63 -67,-63 -24,0 -32,6 -44,35 -15,38 -13,46 19,83 26,29 48,28 76,-2 z"
         id="path1903"
         style="fill:#0d2334;fill-opacity:1" /><path
         d="m 7612,8087 c -9,-10 -10,-191 -4,-713 7,-656 6,-701 -11,-730 -17,-30 -17,-32 6,-65 29,-44 52,-47 88,-13 32,31 37,59 14,91 -13,18 -15,120 -17,730 l -3,708 -31,3 c -17,2 -36,-3 -42,-11 z"
         id="path1905"
         style="fill:#0d2334;fill-opacity:1" /><path
         d="m 4442,8059 c -13,-5 -34,-17 -46,-27 -21,-16 -48,-16 -387,-9 l -364,8 -199,-203 c -284,-290 -429,-457 -421,-482 3,-12 10,-163 15,-336 9,-280 8,-319 -6,-351 -14,-33 -14,-39 0,-67 21,-40 51,-49 84,-25 39,29 49,69 24,96 -18,21 -20,42 -25,337 -6,293 -5,318 12,345 30,50 194,230 378,416 l 174,175 324,2 c 179,1 335,6 349,11 21,8 28,5 56,-30 18,-22 47,-48 66,-56 31,-15 35,-15 54,2 46,41 45,132 -2,182 -23,24 -48,28 -86,12 z"
         id="path1907"
         style="fill:#032b44;fill-opacity:1" /><path
         d="m 2549,7981 c -25,-25 -29,-37 -29,-81 0,-46 4,-56 34,-86 28,-28 41,-34 78,-34 69,0 108,44 108,123 0,40 -5,53 -29,78 -25,25 -37,29 -81,29 -44,0 -56,-4 -81,-29 z"
         id="path1909"
         style="fill:#0d2334;fill-opacity:1" /><path
         d="m 4083,7840 c -48,-29 -66,-72 -61,-144 4,-53 2,-65 -19,-93 -30,-39 -34,-81 -10,-97 22,-14 45,-1 72,42 18,28 25,31 68,32 125,1 181,93 126,207 -34,71 -110,94 -176,53 z m 106,-92 c 11,-27 -7,-61 -33,-66 -19,-4 -45,24 -46,49 -1,41 65,55 79,17 z"
         id="path1911"
         style="fill:#0d2334;fill-opacity:1" /><path
         d="m 6455,7829 c -284,-9 -334,-20 -335,-68 0,-12 26,-13 158,-6 86,4 207,7 267,6 109,-2 110,-2 138,-33 23,-24 27,-36 22,-57 -12,-46 -16,-478 -7,-741 9,-242 8,-256 -9,-276 -26,-27 -24,-47 7,-83 33,-40 68,-41 87,-3 11,22 12,80 6,312 -10,397 -10,752 0,769 8,12 16,8 45,-21 l 36,-36 1,-98 c 5,-364 -2,-848 -11,-859 -8,-10 -8,-20 1,-37 31,-60 62,-73 94,-38 14,15 16,28 11,62 -4,24 -8,259 -9,522 -2,416 -4,480 -17,484 -8,3 -58,46 -110,97 -95,93 -127,117 -152,113 -7,-1 -107,-5 -223,-9 z"
         id="path1913"
         style="fill:#0d2334;fill-opacity:1" /><path
         d="m 3712,7785 c -148,-108 -444,-418 -461,-482 -5,-18 -23,-45 -40,-59 -42,-35 -42,-75 2,-118 l 32,-33 -2,-216 c -1,-134 -6,-224 -13,-237 -15,-29 7,-72 44,-85 25,-9 31,-6 52,20 28,35 30,62 8,93 -13,19 -15,53 -12,220 l 3,198 28,33 c 36,44 37,98 1,140 l -26,31 78,82 c 43,46 149,156 236,246 87,90 158,169 158,177 0,8 1,18 3,22 1,3 -6,7 -16,9 -9,1 -43,-17 -75,-41 z"
         id="path1915"
         style="fill:#0d2334;fill-opacity:1" /><path
         d="m 4501,7743 c -14,-49 -14,-179 -1,-204 13,-23 52,-25 70,-4 15,18 8,173 -10,219 -15,40 -47,34 -59,-11 z"
         id="path1917"
         style="fill:#0d2334;fill-opacity:1" /><path
         d="m 4290,7578 c -233,-214 -391,-386 -410,-446 -7,-23 -11,-45 -8,-48 9,-8 402,374 412,401 7,17 15,23 26,20 21,-7 66,28 73,56 5,19 -22,59 -40,59 -5,0 -28,-19 -53,-42 z"
         id="path1919"
         style="fill:#0d2334;fill-opacity:1" /><path
         d="m 5942,7598 c -7,-7 -12,-28 -12,-48 0,-29 5,-39 24,-48 35,-16 66,9 66,53 0,47 -48,73 -78,43 z"
         id="path1921"
         style="fill:#0d2334;fill-opacity:1" /><path
         d="m 5787,7579 c -9,-12 -13,-29 -10,-38 16,-45 48,-54 78,-21 15,16 17,26 9,48 -12,36 -56,42 -77,11 z"
         id="path1923"
         style="fill:#0d2334;fill-opacity:1" /><path
         d="m 6077,7593 c -12,-12 -7,-60 8,-73 19,-16 49,-9 53,13 7,37 -7,67 -32,67 -12,0 -26,-3 -29,-7 z"
         id="path1925"
         style="fill:#0d2334;fill-opacity:1" /><path
         d="m 6322,7581 c -104,-26 -182,-130 -182,-241 0,-55 43,-134 90,-169 120,-87 258,-61 335,64 26,41 30,58 30,114 -1,43 -7,77 -18,98 -24,45 -75,101 -106,118 -35,18 -108,26 -149,16 z m 136,-135 c 35,-33 37,-38 37,-95 0,-54 -3,-64 -30,-91 -58,-58 -151,-46 -195,25 -24,39 -25,76 -4,121 24,51 59,74 110,74 36,0 51,-6 82,-34 z"
         id="path1927"
         style="fill:#032b44;fill-opacity:1"
         inkscape:label="path1927" /><path
         d="m 4916,7504 c -138,-21 -272,-61 -383,-114 -413,-196 -672,-525 -750,-954 -24,-129 -23,-383 0,-496 104,-490 431,-859 896,-1010 337,-109 601,-105 901,15 263,105 408,209 565,405 243,302 344,731 265,1122 -84,411 -376,768 -765,934 -118,50 -187,68 -370,95 -150,22 -234,23 -359,3 z m 451,-119 c 307,-62 602,-265 779,-535 75,-115 117,-210 150,-337 68,-267 48,-545 -57,-802 -137,-335 -410,-585 -757,-695 -168,-53 -218,-61 -377,-60 -180,1 -307,28 -475,100 -352,151 -575,385 -698,736 -95,269 -77,662 43,932 96,217 315,434 550,547 223,108 343,137 569,138 122,1 171,-4 273,-24 z"
         id="path1929"
         style="fill:#0d2334;fill-opacity:1" /><path
         d="m 4945,7320 c -206,-31 -434,-131 -585,-258 -209,-176 -314,-338 -381,-592 -26,-96 -37,-344 -20,-458 41,-281 212,-561 454,-743 87,-66 169,-110 292,-157 152,-58 203,-67 400,-67 165,0 188,2 276,27 234,65 389,158 555,331 119,125 172,204 228,345 63,157 79,251 80,457 1,153 -2,193 -21,265 -76,301 -274,558 -549,716 -95,54 -295,120 -407,134 -91,11 -246,11 -322,0 z m 418,-125 c 312,-70 558,-272 698,-570 66,-142 84,-233 83,-430 -1,-150 -4,-181 -27,-267 -60,-226 -159,-384 -339,-543 -313,-275 -806,-323 -1183,-114 -271,150 -472,427 -530,735 -32,162 -7,429 52,579 68,171 202,336 361,444 137,93 308,159 462,180 47,6 96,13 110,15 52,9 212,-6 313,-29 z"
         id="path1931"
         style="fill:#0d2334;fill-opacity:1" /><path
         d="m 5057,7062 c -23,-25 -22,-85 1,-105 44,-40 102,-4 102,61 0,55 -68,83 -103,44 z"
         id="path1933"
         style="fill:#0d2334;fill-opacity:1" /><path
         d="m 4480,6791 c 0,-49 20,-132 47,-193 l 25,-57 432,-3 c 237,-2 439,-7 448,-12 25,-12 42,-76 34,-129 -12,-79 -8,-78 -310,-77 h -266 v -117 c 0,-65 -3,-135 -6,-155 l -6,-36 41,5 c 39,5 43,3 142,-83 55,-48 169,-159 252,-246 l 151,-158 h 158 c 87,0 158,4 158,8 0,4 -23,30 -51,57 -57,56 -286,324 -324,381 -14,20 -22,40 -19,45 3,5 24,9 48,9 114,0 228,76 283,188 26,53 28,67 31,199 4,162 -6,207 -63,285 -25,34 -52,55 -102,80 l -68,33 -517,3 -518,3 z"
         id="path1935"
         style="fill:#0d2334;fill-opacity:1" /><path
         d="m 4480,5930 v -400 h 134 c 74,0 137,3 139,8 8,12 13,770 5,777 -3,4 -68,9 -142,11 l -136,5 z"
         id="path1937"
         style="fill:#0d2334;fill-opacity:1" /><path
         d="m 4200,6250 c -51,-51 8,-146 75,-120 31,12 58,67 44,92 -27,51 -83,64 -119,28 z"
         id="path1939"
         style="fill:#0d2334;fill-opacity:1" /><path
         d="m 5933,6260 c -47,-19 -56,-73 -18,-114 30,-33 45,-33 84,0 38,32 40,66 6,99 -26,27 -37,29 -72,15 z"
         id="path1941"
         style="fill:#0d2334;fill-opacity:1" /><path
         d="m 5050,5470 c -25,-25 -25,-51 0,-83 32,-40 57,-43 91,-11 35,34 37,57 4,89 -29,30 -68,32 -95,5 z"
         id="path1943"
         style="fill:#0d2334;fill-opacity:1" /><path
         d="m 2485,7199 c -4,-5 -4,-21 -1,-35 5,-20 12,-24 44,-24 35,0 62,14 62,31 0,31 -89,55 -105,28 z"
         id="path1945"
         style="fill:#0d2334;fill-opacity:1" /><path
         d="m 3494,7041 c -40,-24 -71,-64 -79,-101 -7,-31 22,-109 52,-142 15,-16 15,-28 4,-113 -14,-107 -7,-135 34,-135 27,0 65,32 65,55 0,7 -5,37 -11,65 -15,70 -6,96 38,118 62,29 102,143 73,211 -23,56 -116,78 -176,42 z m 70,-81 c 46,-17 30,-90 -19,-90 -12,0 -26,5 -33,12 -16,16 -15,75 1,81 19,8 24,8 51,-3 z"
         id="path1947"
         style="fill:#032b44;fill-opacity:1" /><path
         d="m 6464,7021 c -72,-44 -69,-158 7,-229 50,-48 59,-87 30,-143 -20,-38 -21,-43 -6,-65 23,-35 47,-45 76,-30 28,14 30,46 8,138 l -13,58 43,41 c 46,44 61,74 61,120 0,102 -117,164 -206,110 z m 107,-71 c 38,-21 17,-100 -26,-100 -20,0 -26,8 -37,41 -11,37 -10,43 7,55 23,17 30,17 56,4 z"
         id="path1949"
         style="fill:#0d2334;fill-opacity:1" /><path
         d="m 2506,7007 c -22,-16 -18,-55 6,-71 26,-16 72,4 76,34 4,25 -20,50 -48,50 -9,0 -24,-6 -34,-13 z"
         id="path1951"
         style="fill:#0d2334;fill-opacity:1" /><path
         d="m 2500,6635 c -16,-19 -6,-43 22,-54 28,-11 48,3 48,34 0,34 -47,48 -70,20 z"
         id="path1953"
         style="fill:#0d2334;fill-opacity:1" /><path
         d="m 2496,6439 c -18,-14 -19,-20 -8,-43 l 12,-26 h 579 c 519,0 579,2 585,16 10,26 7,54 -6,59 -7,3 -267,6 -577,7 -510,3 -567,1 -585,-13 z"
         id="path1955"
         style="fill:#032b44;fill-opacity:1" /><path
         d="m 6553,6442 c -19,-3 -23,-10 -23,-37 v -33 l 67,-7 c 70,-7 1105,-5 1136,2 23,6 41,51 27,68 -8,9 -141,12 -598,11 -323,0 -597,-2 -609,-4 z"
         id="path1957"
         style="fill:#032b44;fill-opacity:1" /><path
         d="m 7131,6270 c -563,-5 -574,-5 -581,-25 -4,-11 -3,-28 1,-37 9,-16 52,-17 608,-15 330,1 603,5 606,9 13,12 8,60 -6,69 -8,5 -23,8 -34,6 -11,-1 -278,-4 -594,-7 z"
         id="path1959"
         style="fill:#032b44;fill-opacity:1" /><path
         d="m 2498,6259 c -23,-13 -23,-32 0,-52 17,-15 71,-17 575,-17 492,0 557,2 571,16 18,17 19,24 10,48 -6,14 -65,16 -573,16 -366,-1 -572,-4 -583,-11 z"
         id="path1961"
         style="fill:#032b44;fill-opacity:1" /><path
         d="m 2495,6080 c -18,-20 -18,-21 2,-41 20,-20 29,-20 339,-18 175,2 432,3 569,4 h 250 l 3,23 c 8,53 25,52 -583,52 -552,0 -562,0 -580,-20 z"
         id="path1963"
         style="fill:#032b44;fill-opacity:1" /><path
         d="m 6552,6088 c -7,-7 -12,-25 -12,-40 v -28 h 604 c 652,0 632,-2 624,52 l -3,23 -600,3 c -459,2 -604,-1 -613,-10 z"
         id="path1965"
         style="fill:#032b44;fill-opacity:1" /><path
         d="m 2506,5914 c -22,-21 -20,-51 3,-64 13,-6 212,-10 576,-10 364,0 563,4 576,10 24,13 26,65 3,74 -9,3 -269,6 -579,6 -499,0 -565,-2 -579,-16 z"
         id="path1967"
         style="fill:#032b44;fill-opacity:1" /><path
         d="m 6524,5919 c -17,-21 -23,-58 -12,-65 12,-7 1216,-13 1236,-6 6,2 12,19 12,38 v 34 h -397 c -219,0 -495,3 -613,7 -178,5 -217,4 -226,-8 z"
         id="path1969"
         style="fill:#032b44;fill-opacity:1" /><path
         d="m 2665,5715 c -25,-24 -33,-59 -16,-69 5,-3 7,-226 4,-518 -4,-342 -2,-549 6,-622 7,-70 7,-114 1,-125 -5,-9 -10,-11 -10,-4 0,18 -53,43 -90,43 -32,0 -70,-30 -70,-55 0,-23 46,-65 70,-65 11,0 36,7 55,14 29,12 35,13 35,2 0,-19 26,-27 39,-12 25,30 33,166 41,699 4,306 11,590 15,631 6,70 5,75 -16,90 -31,21 -35,20 -64,-9 z"
         id="path1971"
         style="fill:#0d2334;fill-opacity:1" /><path
         d="m 7066,5718 c -20,-28 -21,-72 -2,-87 11,-9 14,-53 14,-216 1,-113 -3,-205 -7,-205 -4,0 -45,-45 -90,-99 -45,-54 -93,-106 -106,-115 -14,-9 -31,-29 -39,-45 -14,-26 -14,-30 5,-47 15,-13 25,-15 43,-8 13,5 81,73 150,151 l 126,142 v 219 c 0,183 3,222 15,232 21,18 19,34 -11,69 -32,38 -75,42 -98,9 z"
         id="path1973"
         style="fill:#0d2334;fill-opacity:1" /><path
         d="m 7373,5718 c -44,-49 -45,-61 -8,-114 l 34,-48 -1,-155 -1,-156 -453,-455 c -249,-251 -459,-464 -467,-473 -12,-17 -32,-18 -275,-14 l -262,4 -31,31 c -41,42 -76,42 -116,0 -16,-18 -33,-41 -36,-51 -14,-39 35,-107 77,-107 14,0 39,12 56,26 l 31,27 287,-2 287,-2 485,485 484,485 3,192 c 2,177 4,194 23,214 45,48 5,135 -63,135 -22,0 -40,-8 -54,-22 z"
         id="path1975"
         style="fill:#032b44;fill-opacity:1" /><path
         d="m 7613,5718 c -32,-37 -35,-46 -18,-77 13,-26 14,-64 9,-252 l -5,-223 -422,-426 c -232,-234 -471,-472 -532,-529 l -110,-103 -320,2 c -176,1 -342,4 -368,7 -56,6 -87,-14 -87,-56 0,-63 68,-94 113,-53 17,15 51,17 359,19 l 340,2 51,45 c 29,25 279,271 556,548 l 503,503 2,238 2,238 28,23 c 32,25 30,45 -5,90 -26,33 -68,34 -96,4 z"
         id="path1977"
         style="fill:#0d2334;fill-opacity:1" /><path
         d="m 2502,5714 c -26,-18 -28,-41 -7,-71 21,-30 51,-34 80,-11 30,24 32,51 5,78 -24,24 -48,25 -78,4 z"
         id="path1979"
         style="fill:#0d2334;fill-opacity:1" /><path
         d="m 2859,5713 c -28,-32 -31,-44 -17,-60 10,-13 12,-120 10,-572 l -4,-556 77,-80 c 43,-44 115,-130 161,-191 46,-61 91,-117 99,-124 9,-8 26,-32 37,-54 11,-22 46,-68 78,-101 31,-33 67,-75 79,-92 l 22,-33 h 162 l 162,-1 20,-32 c 44,-69 119,-73 183,-8 37,38 38,38 133,44 l 97,6 13,-31 c 26,-62 105,-85 167,-48 96,59 97,196 2,245 -66,34 -138,10 -175,-59 -18,-32 -24,-36 -61,-36 -23,0 -62,3 -88,6 -42,6 -49,11 -66,45 -23,43 -71,65 -126,55 -38,-8 -104,-66 -104,-93 0,-14 -12,-15 -97,-10 -54,4 -114,7 -133,7 -29,0 -39,6 -54,31 -10,17 -59,74 -110,127 -50,54 -111,122 -136,152 -24,30 -60,73 -81,95 -20,22 -61,76 -90,120 -29,44 -61,88 -71,98 -17,17 -18,46 -18,528 0,458 2,515 17,546 15,32 15,39 2,62 -18,33 -68,40 -90,14 z M 3876,3925 c 30,-46 -17,-100 -54,-63 -13,13 -17,70 -5,81 14,15 43,6 59,-18 z m 444,5 c 25,-46 -16,-94 -60,-70 -37,20 -18,90 25,90 14,0 29,-8 35,-20 z"
         id="path1981"
         style="fill:#032b44;fill-opacity:1" /><path
         d="m 3061,5721 c -11,-7 -13,-105 -12,-562 l 2,-554 53,-55 c 29,-30 70,-77 92,-104 65,-82 311,-294 356,-308 42,-12 76,-8 198,28 44,12 87,15 217,10 143,-4 162,-3 168,12 5,13 10,10 25,-15 28,-46 58,-63 113,-63 44,0 54,4 87,38 66,66 75,155 22,204 -38,36 -65,48 -107,48 -56,0 -91,-24 -117,-80 l -23,-50 -170,6 c -157,6 -176,5 -249,-16 -114,-32 -153,-25 -219,37 -28,27 -80,68 -114,91 -57,39 -213,206 -241,259 -16,30 -17,961 -1,996 23,51 -35,108 -80,78 z M 4311,4300 c 37,-20 14,-90 -30,-90 -37,0 -52,41 -31,81 12,21 32,24 61,9 z"
         id="path1983"
         style="fill:#0d2334;fill-opacity:1" /><path
         d="m 3242,5707 c -23,-24 -29,-56 -12,-73 5,-5 10,-199 12,-479 l 3,-470 50,-51 c 28,-27 70,-72 95,-98 25,-27 68,-61 95,-77 48,-28 55,-29 180,-29 71,0 203,-5 293,-11 136,-9 166,-9 177,2 21,23 26,54 11,75 -14,18 -26,19 -193,17 -98,-2 -229,-6 -290,-9 l -113,-6 -82,82 c -46,45 -95,89 -110,98 -19,11 -30,28 -34,51 -8,41 3,902 12,924 6,16 -12,57 -30,69 -20,14 -42,8 -64,-15 z"
         id="path1985"
         style="fill:#0d2334;fill-opacity:1" /><path
         d="m 3624,5706 c -21,-34 -14,-67 19,-86 24,-13 30,-13 55,0 35,20 41,61 13,89 -29,29 -67,27 -87,-3 z"
         id="path1987"
         style="fill:#0d2334;fill-opacity:1" /><path
         d="m 6521,5721 c -11,-7 -13,-25 -7,-81 6,-64 4,-75 -16,-103 -12,-18 -124,-138 -249,-267 -238,-247 -309,-325 -309,-341 0,-13 27,-11 58,5 54,29 356,349 442,469 l 34,48 19,-41 c 24,-51 70,-90 107,-90 38,0 84,40 98,86 14,47 -1,79 -62,128 -43,36 -44,37 -50,116 -7,73 -9,80 -29,80 -12,0 -28,-4 -36,-9 z"
         id="path1989"
         style="fill:#0d2334;fill-opacity:1" /><path
         d="m 6860,5710 c -28,-28 -26,-81 3,-108 13,-12 28,-22 34,-22 23,0 73,58 73,84 0,33 -33,66 -65,66 -14,0 -34,-9 -45,-20 z"
         id="path1991"
         style="fill:#0d2334;fill-opacity:1" /><path
         d="m 3434,5695 c -11,-16 -14,-34 -10,-51 4,-15 7,-239 6,-498 0,-400 2,-474 14,-491 20,-27 48,-10 58,36 4,19 7,230 6,469 -2,354 0,442 12,472 11,29 11,43 2,63 -16,35 -65,35 -88,0 z"
         id="path1993"
         style="fill:#032b44;fill-opacity:1" /><path
         d="m 6830,5529 c -68,-28 -80,-87 -30,-153 17,-22 30,-50 30,-62 0,-21 -96,-152 -134,-184 -23,-18 -20,-35 10,-49 29,-13 31,-11 146,122 54,63 58,70 52,106 -5,31 -2,45 16,69 20,27 21,34 10,66 -11,36 -55,97 -68,95 -4,0 -18,-5 -32,-10 z"
         id="path1995"
         style="fill:#0d2334;fill-opacity:1" /><path
         d="m 3634,5500 c -11,-4 -33,-22 -47,-40 -21,-25 -27,-42 -27,-81 0,-42 5,-55 33,-85 61,-67 165,-56 202,22 21,45 16,115 -11,146 -36,40 -103,57 -150,38 z m 91,-104 c 8,-24 6,-31 -13,-47 -28,-22 -47,-16 -62,22 -10,23 -10,32 0,45 21,24 63,14 75,-20 z"
         id="path1997"
         style="fill:#0d2334;fill-opacity:1" /><path
         d="m 2510,5386 c -15,-19 -9,-56 11,-69 11,-7 24,-5 44,4 37,18 40,30 15,57 -24,25 -52,28 -70,8 z"
         id="path1999"
         style="fill:#0d2334;fill-opacity:1" /><path
         d="m 6373,5188 c -17,-18 -83,-84 -147,-146 l -116,-113 v -62 -62 l 78,-85 c 110,-121 194,-200 214,-200 9,0 21,6 25,14 11,18 75,90 184,204 l 89,94 v 60 c 0,60 0,62 -53,112 -100,97 -231,216 -237,216 -4,0 -21,-15 -37,-32 z m 75,-115 c 25,-27 71,-76 103,-110 33,-34 59,-67 59,-74 0,-6 -50,-63 -111,-125 l -111,-113 -53,57 c -114,124 -136,154 -133,179 2,20 180,229 198,232 2,1 24,-20 48,-46 z"
         id="path2001"
         style="fill:#0d2334;fill-opacity:1" /><path
         d="m 6345,4979 c -19,-17 -45,-45 -56,-61 -18,-25 -19,-33 -9,-59 16,-37 78,-98 108,-106 26,-6 64,24 113,91 l 29,39 -21,36 c -23,41 -84,91 -110,91 -10,0 -34,-14 -54,-31 z"
         id="path2003"
         style="fill:#0d2334;fill-opacity:1" /><path
         d="m 3777,5176 c -107,-39 -157,-111 -157,-229 0,-117 47,-199 136,-233 133,-51 281,38 315,191 25,113 -48,236 -162,269 -63,19 -82,19 -132,2 z m 133,-114 c 14,-10 36,-39 48,-65 30,-58 23,-94 -25,-148 -31,-34 -41,-39 -80,-39 -82,0 -137,55 -135,137 1,112 108,175 192,115 z"
         id="path2005"
         style="fill:#0d2334;fill-opacity:1" /><path
         d="m 7145,4425 -510,-515 -250,-1 c -137,0 -301,-4 -364,-8 -110,-8 -115,-8 -149,15 -41,28 -50,29 -80,8 -51,-36 -45,-102 14,-140 30,-20 64,-9 89,29 14,22 19,23 68,16 28,-5 199,-8 379,-7 l 328,2 302,306 c 166,168 407,410 536,539 147,147 232,239 230,250 -2,11 -16,17 -43,19 l -40,3 z"
         id="path2007"
         style="fill:#0d2334;fill-opacity:1" /><path
         d="m 4242,4918 c -17,-17 -15,-79 4,-106 32,-46 104,-12 104,48 0,17 -9,39 -20,50 -22,22 -69,27 -88,8 z"
         id="path2009"
         style="fill:#0d2334;fill-opacity:1" /><path
         d="m 5845,4865 c -22,-8 -41,-15 -42,-15 -13,-1 -33,-70 -33,-111 0,-45 4,-55 34,-85 26,-26 42,-34 70,-34 79,0 126,51 126,134 0,39 -6,51 -38,86 -42,43 -56,47 -117,25 z"
         id="path2011"
         style="fill:#032b44;fill-opacity:1" /><path
         d="m 4508,4834 c -48,-25 -61,-71 -33,-111 13,-19 16,-85 18,-462 l 2,-439 24,-26 c 31,-33 37,-32 54,2 12,22 13,99 6,462 -7,420 -7,436 12,466 26,43 24,60 -10,95 -34,33 -36,34 -73,13 z"
         id="path2013"
         style="fill:#0d2334;fill-opacity:1" /><path
         d="m 5571,4815 c -36,-41 -37,-45 -15,-87 14,-28 16,-81 13,-468 -4,-419 -3,-439 15,-459 11,-11 24,-21 31,-21 33,0 36,49 34,486 -2,387 0,434 14,455 24,34 21,76 -8,104 -32,33 -47,31 -84,-10 z"
         id="path2015"
         style="fill:#0d2334;fill-opacity:1" /><path
         d="m 4686,4778 c -14,-20 -16,-81 -16,-473 0,-409 2,-453 18,-484 22,-44 37,-49 56,-19 13,20 16,89 16,497 1,349 -2,476 -11,487 -17,21 -46,17 -63,-8 z"
         id="path2017"
         style="fill:#0d2334;fill-opacity:1" /><path
         d="m 5397,4767 c -22,-15 -21,15 -19,-499 l 2,-437 24,-28 c 24,-27 24,-28 45,-9 21,19 21,25 21,486 0,440 -1,468 -18,483 -22,20 -33,21 -55,4 z"
         id="path2019"
         style="fill:#0d2334;fill-opacity:1" /><path
         d="m 4861,4746 c -9,-11 -12,-125 -11,-473 1,-447 1,-458 21,-478 l 20,-20 20,24 c 18,23 19,40 17,490 l -3,466 -26,3 c -14,2 -31,-4 -38,-12 z"
         id="path2021"
         style="fill:#032b44;fill-opacity:1" /><path
         d="m 6745,4750 c -3,-5 -2,-10 4,-10 5,0 13,5 16,10 3,6 2,10 -4,10 -5,0 -13,-4 -16,-10 z"
         id="path2023"
         style="fill:#0d2334;fill-opacity:1" /><path
         d="m 5042,4738 c -9,-9 -12,-126 -12,-463 v -452 l 23,-21 c 23,-21 24,-21 40,-5 14,16 16,73 18,474 1,250 -1,461 -5,467 -9,16 -49,15 -64,0 z"
         id="path2025"
         style="fill:#032b44;fill-opacity:1" /><path
         d="m 5217,4738 c -14,-12 -15,-54 -10,-466 6,-430 7,-455 26,-478 18,-24 20,-24 38,-8 18,16 19,39 19,479 0,345 -3,464 -12,473 -15,15 -40,15 -61,0 z"
         id="path2027"
         style="fill:#032b44;fill-opacity:1" /><path
         d="m 7569,4676 c -34,-20 -51,-63 -48,-120 3,-42 1,-47 -35,-71 -58,-39 -408,-395 -430,-437 -11,-20 -29,-39 -41,-42 -11,-3 -33,-19 -49,-35 -41,-43 -47,-113 -14,-161 34,-50 67,-66 114,-55 74,19 111,128 64,188 -11,14 -20,28 -20,32 0,4 80,91 179,193 98,103 200,213 227,244 49,57 52,58 103,42 13,-4 32,7 65,38 40,39 46,50 46,86 0,82 -91,137 -161,98 z"
         id="path2029"
         style="fill:#0d2334;fill-opacity:1" /><path
         d="m 7616,4414 c -30,-45 -32,-91 -6,-119 29,-31 60,-32 88,-2 39,42 24,92 -39,131 -25,16 -27,16 -43,-10 z"
         id="path2031"
         style="fill:#0d2334;fill-opacity:1" /><path
         d="m 7435,4208 c -95,-52 -134,-180 -86,-283 88,-191 381,-128 381,82 0,45 -38,129 -71,160 -52,48 -172,70 -224,41 z m 145,-103 c 37,-19 50,-43 50,-94 0,-53 -7,-69 -41,-86 -49,-26 -97,-19 -135,19 -28,28 -34,41 -34,78 0,48 15,69 60,87 36,14 67,13 100,-4 z"
         id="path2033"
         style="fill:#0d2334;fill-opacity:1" /><path
         d="m 2623,4185 c -100,-60 -124,-231 -45,-318 76,-84 235,-72 298,23 58,88 38,201 -47,269 -70,57 -139,66 -206,26 z m 148,-98 c 24,-19 39,-52 39,-90 0,-60 -74,-104 -135,-81 -44,17 -59,114 -24,158 16,21 29,26 62,26 23,0 49,-6 58,-13 z"
         id="path2035"
         style="fill:#0d2334;fill-opacity:1" /><path
         d="m 3042,3947 c -32,-34 -30,-96 4,-136 32,-38 67,-40 99,-5 48,52 41,120 -17,150 -38,20 -61,17 -86,-9 z"
         id="path2037"
         style="fill:#0d2334;fill-opacity:1" /><path
         d="m 2488.8887,3050.2626 c 0,-170.5252 2.5691,-320.2084 5.1381,-331.5767 4.2818,-19.8947 8.5636,-21.7893 66.7957,-18.9473 l 62.5139,1.8947 5.1381,59.6839 c 3.4254,33.1576 3.4254,74.8415 0,92.8415 l -5.1381,32.2103 h 60.8011 60.8012 l 38.536,-63.4733 c 71.0774,-118.4203 65.9392,-114.6308 155.8564,-118.4203 42.8178,-0.9473 80.4974,0 83.9228,2.8422 2.569,3.7893 -25.6907,51.1575 -63.3702,106.1045 l -67.6521,99.473 36.8233,42.6312 c 38.5359,44.526 72.7901,127.8939 72.7901,176.2093 0,73.8943 -53.094,160.1043 -124.1714,202.7355 -31.6851,18.9472 -48.8122,20.842 -211.5195,23.6841 l -178.1218,2.8421 z m 345.9672,124.1043 c 27.4033,-33.1577 28.2597,-79.5783 1.7127,-113.6833 -18.8398,-24.6315 -24.8343,-25.5789 -111.3261,-30.3156 l -91.6299,-4.7369 v 87.1573 86.2099 h 89.9172 c 87.3482,0 91.6299,-0.9473 111.3261,-24.6314 z"
         id="path2039"
         style="fill:#00112a;fill-opacity:1;stroke-width:0.900709" /><path
         d="m 3179.9667,3262.4717 c -1.7127,-53.0524 -1.7127,-201.7881 0,-328.7347 l 4.2818,-232.1037 116.4642,0.9474 c 64.2266,0.9474 167.8455,1.8947 230.3594,1.8947 l 113.0388,1.8948 v 75.7889 75.789 h -157.5693 -156.7128 l -5.1382,45.4733 c -2.569,24.6315 -2.569,46.4208 0,49.2629 1.7127,2.842 57.3758,5.6841 123.3151,7.5789 117.3206,2.8421 119.0333,3.7895 119.0333,24.6314 0,12.3156 2.569,41.6839 5.1381,66.3153 l 5.9944,43.5787 h -125.0276 -124.1715 l -3.4254,50.2101 c -1.7127,26.5262 -3.4254,50.2103 -2.5691,51.1575 0,0.9474 70.2211,2.8421 156.7129,4.7369 l 155.8566,2.8421 v 77.6837 78.631 h -226.0777 -225.2212 z"
         id="path2041"
         style="fill:#00112a;fill-opacity:1;stroke-width:0.900709" /><path
         d="m 3772.564,3284.261 v -75.7891 h 85.6355 85.6354 v -251.0508 -251.0509 h 68.5084 68.5083 v 251.0509 251.0508 h 89.9172 89.9173 v 75.7891 75.7889 H 4016.625 3772.564 Z"
         id="path2043"
         style="fill:#00112a;fill-opacity:1;stroke-width:0.900709" /><path
         d="m 4573.2555,3342.9974 c -110.4698,-42.6313 -173.84,-124.1045 -191.8235,-247.2614 -22.2652,-152.5254 51.3813,-299.3664 183.2599,-367.5765 40.2486,-20.8419 63.3703,-26.5262 107.0443,-25.5788 108.7571,0 224.3649,86.2099 272.3207,200.8407 19.6962,46.4208 23.1216,66.3154 23.1216,143.9991 0,75.7889 -3.4254,96.6309 -19.6962,130.7359 -30.8287,64.4206 -83.9227,121.2623 -141.2985,153.4726 -44.5303,24.6314 -60.8011,28.4209 -120.7459,28.4209 -42.8177,-0.9473 -85.6354,-6.6316 -112.1824,-17.0525 z m 183.2598,-154.42 c 90.7736,-55.8944 102.7626,-203.6828 22.2652,-281.3665 -57.3757,-56.8417 -119.0333,-61.5786 -189.2543,-16.1052 -98.4808,64.4206 -95.9118,236.8406 5.1381,295.5769 48.8122,28.4209 118.1769,29.3683 161.851,1.8948 z"
         id="path2045"
         style="fill:#00112a;fill-opacity:1;stroke-width:0.900709" /><path
         d="m 5139.3058,3242.577 c -6.8509,-143.0517 -6.8509,-285.1559 0,-428.2076 l 5.9945,-112.7361 60.8011,4.7369 60.8012,4.7367 2.569,89.9994 2.5691,89.9994 53.9504,0.9474 53.9502,1.8947 59.0885,-93.7888 59.0885,-92.8414 79.641,-0.9474 c 61.6574,0 77.9282,2.8421 73.6464,12.3157 -4.2817,5.6841 -35.9669,53.9996 -71.0774,105.1571 -37.6796,53.9996 -60.8012,95.6835 -54.8067,97.5783 24.8343,9.4737 67.652,48.3155 85.6354,76.7363 23.1217,38.8419 40.2487,125.0518 32.5415,165.7883 -14.558,71.0522 -61.6575,137.3676 -124.1714,173.3673 -25.6906,15.1579 -53.0939,17.0525 -202.0997,17.9999 h -172.1271 z m 331.4091,-53.0523 c 29.116,-25.5788 37.6797,-73.8942 19.6962,-111.7887 -6.8509,-15.1577 -19.6962,-30.3155 -26.547,-34.105 -7.7072,-2.842 -54.8067,-5.6841 -103.6189,-5.6841 h -89.0608 v 79.5784 c 0,92.8414 -6.8509,87.1573 107.9006,89.9994 58.2321,0.9472 73.6465,-1.8948 91.6299,-18 z"
         id="path2047"
         style="fill:#00112a;fill-opacity:1;stroke-width:0.900709" /><path
         d="m 6464.6971,3062.5912 c 0,-162.9462 -2.569,-310.7347 -5.138,-326.8398 l -5.1382,-29.3683 h 69.3647 69.3648 l 1.7127,111.7887 c 1.7126,60.6312 0.8563,143.999 -0.8564,184.7357 -0.8563,39.7891 -0.8563,72.9468 1.7127,72.9468 4.2818,0 172.1273,-215.9986 228.6467,-293.6823 52.2375,-72.9468 56.5193,-75.7889 115.6078,-75.7889 h 52.2376 l -0.8563,326.8399 v 326.8398 h -65.9394 -66.7955 l -1.7127,-190.4197 -2.5692,-190.4197 -27.4033,41.6839 c -15.4144,23.6841 -65.0829,89.052 -111.3261,145.8936 -46.2431,56.8418 -98.4807,124.1045 -117.3206,148.7359 -32.5414,43.5787 -33.3977,44.526 -83.0663,44.526 h -50.525 z"
         id="path2049"
         style="fill:#00112a;fill-opacity:1;stroke-width:0.900709" /><path
         d="m 7330.4715,3251.1162 c -19.6962,-60.6312 -64.2266,-184.7355 -99.3371,-277.577 -34.2542,-91.8942 -71.0774,-190.4198 -80.4973,-216.9459 l -17.9834,-50.2102 h 72.79 71.9339 l 23.9779,50.2102 23.978,49.2628 112.1824,2.8421 113.0388,2.8421 17.9833,-41.684 c 10.2763,-22.7367 17.9835,-46.4206 17.9835,-52.1049 0,-7.5788 22.2652,-11.3683 73.6465,-11.3683 h 73.6465 l -5.9945,26.5262 c -5.1382,22.7366 -57.3757,163.8936 -189.2543,503.9965 l -45.3868,118.4203 -63.3703,2.842 -62.5138,2.8421 z m 137.0168,-196.1039 c 16.2707,-48.3155 29.9723,-90.9467 31.685,-94.7362 2.5691,-4.7368 -125.8841,-16.1051 -133.5913,-10.421 -5.138,2.8421 61.6576,192.3145 67.6521,192.3145 3.4253,0 18.8398,-39.7891 34.2542,-87.1573 z"
         id="path2051"
         style="fill:#00112a;fill-opacity:1;stroke-width:0.900709" /><path
         d="m 3299.1151,2253 -758.1421,-3 -27.9851,-25 c -63.6025,-56 -76.323,-55 895.5235,-55 h 892.9794 l -7.6323,43 -7.6323,42 h -114.4845 c -63.6026,1 -455.3941,-1 -872.6266,-2 z"
         id="path2075"
         style="fill:#0b0b28;fill-opacity:1;stroke-width:1.59502" /><path
         d="m 6864.4644,2253 -758.1421,-3 -27.9851,-25 c -63.6025,-56 -76.323,-55 895.5235,-55 h 892.9791 l -7.632,43 -7.632,42 h -114.485 c -63.602,1 -455.394,-1 -872.6264,-2 z"
         id="path10884"
         style="fill:#0b0b28;fill-opacity:1;stroke-width:1.59502" /><path
         d="m 5790.3581,3062.5783 c 0,-162.9463 -2.569,-310.7347 -5.138,-326.8399 l -5.1382,-29.3682 h 69.3647 69.3648 l 1.7126,111.7887 c 1.7127,60.6311 0.8564,143.999 -0.8563,184.7356 -0.8563,39.7891 -0.8563,72.9468 1.7127,72.9468 4.2818,0 172.1273,-215.9985 228.6466,-293.6822 52.2376,-72.9468 56.5194,-75.7889 115.6078,-75.7889 h 52.2377 l -0.8563,326.8398 v 326.8399 h -65.9394 -66.7956 l -1.7127,-190.4197 -2.5691,-190.4198 -27.4033,41.6839 c -15.4144,23.6841 -65.0829,89.052 -111.3261,145.8937 -46.2431,56.8418 -98.4808,124.1045 -117.3206,148.7359 -32.5414,43.5787 -33.3977,44.526 -83.0663,44.526 h -50.525 z"
         id="path10886"
         style="fill:#00112a;fill-opacity:1;stroke-width:0.900709" /></g><text
       xml:space="preserve"
       transform="matrix(0.26458333,0,0,0.26458333,23.386503,-2.9968228)"
       id="text8466"
       style="font-style:normal;font-variant:normal;font-weight:normal;font-stretch:normal;font-size:48px;line-height:1.6;font-family:'Liberation Mono';-inkscape-font-specification:'Liberation Mono';white-space:pre;shape-inside:url(#rect8468);display:inline;fill:#020202;fill-opacity:1;stroke-width:16.8227;stroke-dasharray:none;image-rendering:auto"><tspan
         x="221.39062"
         y="973.56636"
         id="tspan35328"><tspan
           style="stroke-width:5.92446"
           id="tspan35326">RISC-V</tspan></tspan></text></g><g
     inkscape:groupmode="layer"
     id="layer4"
     inkscape:label="lineas_rectas"
     style="display:none"><ellipse
       style="fill:#0d2334;fill-opacity:1;stroke-width:0.74886;stroke-dasharray:none;paint-order:stroke fill markers"
       id="path30884"
       cx="18.816938"
       cy="36.246365"
       rx="7.576282"
       ry="7.3147988"
       inkscape:label="path30884" /><ellipse
       style="fill:#ffffff;fill-opacity:1;stroke-width:0.751001;stroke-dasharray:none;paint-order:stroke fill markers"
       id="path30938"
       cx="18.837093"
       cy="36.90834"
       rx="2.874243"
       ry="3.1512289" /><ellipse
       style="fill:#ffffff;fill-opacity:1;stroke-width:0.751001;stroke-dasharray:none;paint-order:stroke fill markers"
       id="path34372"
       cx="32.490524"
       cy="31.927769"
       rx="3.5630898"
       ry="3.519165" /><path
       style="fill:#ffffff;fill-opacity:1;stroke-width:0.751001;stroke-dasharray:none;paint-order:stroke fill markers"
       id="path34374"
       sodipodi:type="arc"
       sodipodi:cx="80.415245"
       sodipodi:cy="32.342213"
       sodipodi:rx="3.0659626"
       sodipodi:ry="3.1367595"
       sodipodi:start="0"
       sodipodi:end="6.2298987"
       sodipodi:open="true"
       sodipodi:arc-type="arc"
       d="m 83.481208,32.342213 a 3.0659626,3.1367595 0 0 1 -3.02512,3.136481 3.0659626,3.1367595 0 0 1 -3.105717,-3.052918 3.0659626,3.1367595 0 0 1 2.942376,-3.217818 3.0659626,3.1367595 0 0 1 3.184109,2.967186" /><path
       style="display:inline;fill:#0d2334;fill-opacity:1;stroke-width:0.751001;stroke-dasharray:none;paint-order:stroke fill markers"
       d="M 35.991601,30.688565 78.099625,30.465323"
       id="path34432"
       inkscape:path-effect="#path-effect34434"
       inkscape:original-d="M 35.991601,30.688565 C 49.973097,30.559639 64.063882,30.540002 78.099625,30.465323" /><path
       style="display:inline;fill:#0d2334;fill-opacity:1;stroke-width:0.751001;stroke-dasharray:none;paint-order:stroke fill markers"
       d="M 77.585961,33.735 36.091854,33.735409 35.60196,30.93558 77.703782,30.936 Z"
       id="path35175"
       sodipodi:nodetypes="ccccc" /><path
       style="display:inline;fill:#0d2334;fill-opacity:1;stroke-width:0.751001;stroke-dasharray:none;paint-order:stroke fill markers"
       d="M 15.083317,93.019 15.083,63.002 41.456901,33.70957 45.200342,33.75401 18.386474,63.702 18.298624,93.019 Z"
       id="path35164"
       sodipodi:nodetypes="ccccccc" /><path
       style="display:inline;fill:#0d2334;fill-opacity:1;stroke-width:0.751001;stroke-dasharray:none;paint-order:stroke fill markers"
       d="m 81.641528,38.904084 -0.100253,3.16053 -33.427416,0.07855 -23.237858,24.714771 0.376204,26.092462 -2.389518,0.175701 -0.814421,-27.53837 24.872901,-26.877948 z"
       id="path35185"
       sodipodi:nodetypes="ccccccccc" /></g></svg>
