<?xml version="1.0" encoding="UTF-8" standalone="no"?>
<!-- Created with Inkscape (http://www.inkscape.org/) -->

<svg
   width="210mm"
   height="148mm"
   viewBox="0 0 210 148"
   version="1.1"
   id="svg478"
   inkscape:version="1.2.2 (b0a8486541, 2022-12-01)"
   sodipodi:docname="retornna_logo_4a.svg"
   xmlns:inkscape="http://www.inkscape.org/namespaces/inkscape"
   xmlns:sodipodi="http://sodipodi.sourceforge.net/DTD/sodipodi-0.dtd"
   xmlns="http://www.w3.org/2000/svg"
   xmlns:svg="http://www.w3.org/2000/svg">
  <sodipodi:namedview
     id="namedview480"
     pagecolor="#ffffff"
     bordercolor="#000000"
     borderopacity="0.25"
     inkscape:showpageshadow="2"
     inkscape:pageopacity="0.0"
     inkscape:pagecheckerboard="0"
     inkscape:deskcolor="#d1d1d1"
     inkscape:document-units="mm"
     showgrid="false"
     inkscape:zoom="1.0378437"
     inkscape:cx="300.14153"
     inkscape:cy="562.22338"
     inkscape:window-width="2494"
     inkscape:window-height="1371"
     inkscape:window-x="0"
     inkscape:window-y="0"
     inkscape:window-maximized="1"
     inkscape:current-layer="svg478">
    <inkscape:grid
       type="xygrid"
       id="grid587"
       originx="0"
       originy="0" />
    <inkscape:page
       x="0"
       y="0"
       width="210"
       height="148"
       id="page27426" />
    <inkscape:page
       x="247.15012"
       y="78.159676"
       width="0"
       height="0"
       id="page27428" />
  </sodipodi:namedview>
  <defs
     id="defs475" />
  <g
     inkscape:label="Capa 1"
     inkscape:groupmode="layer"
     id="layer1">
    <path
       d="m 93.885506,16.935903 c -0.776111,0.811389 -0.776111,1.023056 -0.705556,8.396112 l 0.105834,7.549444 h 2.116667 2.116666 l 0.105834,-6.879167 c 0.105833,-7.514167 0.03528,-8.149167 -0.987778,-9.172222 -0.917222,-0.917223 -1.834445,-0.881945 -2.751667,0.105833 z"
       id="path119"
       style="fill:#052032;fill-opacity:1;stroke-width:0.0352778" />
    <path
       d="m 102.14051,17.253403 c -0.45861,0.635 -0.56445,2.010834 -0.56445,7.514167 0,3.668889 0.10584,7.055556 0.21167,7.478889 0.21167,0.705556 0.45861,0.811389 2.11667,0.811389 h 1.905 v -7.584722 c 0,-7.126112 -0.0353,-7.620001 -0.70556,-8.290278 -0.9525,-0.952501 -2.29306,-0.917223 -2.96333,0.07055 z"
       id="path121"
       style="fill:#052032;fill-opacity:1;stroke-width:0.0352778" />
    <path
       d="m 110.81884,17.288681 c -0.74083,0.776111 -0.77611,1.128889 -0.77611,8.078611 v 7.231945 l 1.09361,0.246945 c 0.59972,0.105833 1.55222,0.211666 2.11667,0.211666 h 1.02305 v -7.584722 c 0,-7.126112 -0.0353,-7.620001 -0.70555,-8.290278 -0.91722,-0.917223 -1.83445,-0.881945 -2.75167,0.105833 z"
       id="path123"
       style="fill:#052032;fill-opacity:1;stroke-width:0.0352778" />
    <path
       d="m 76.458283,20.00507 c -1.693334,0.493889 -3.386667,1.763889 -4.233334,3.104444 -0.670278,1.093612 -0.811389,1.799167 -0.811389,4.339167 0,2.716389 0.105833,3.175001 0.9525,4.409723 1.375834,1.940278 3.139723,3.033889 5.221112,3.245556 7.408333,0.705555 11.535834,-7.090834 6.738056,-12.664723 -2.010834,-2.398889 -5.009445,-3.316112 -7.866945,-2.434167 z m 3.774722,4.797778 c 2.116667,0.987778 2.469445,3.316111 0.740833,5.185834 -1.481666,1.5875 -3.951111,1.199444 -4.974166,-0.811389 -0.776112,-1.516945 -0.670278,-2.822223 0.423333,-3.951112 1.058333,-1.128889 2.116667,-1.234722 3.81,-0.423333 z"
       id="path125"
       style="fill:#052032;fill-opacity:1;stroke-width:0.0352778" />
    <path
       d="m 126.51745,20.110903 c -3.175,0.987778 -5.18583,3.774723 -5.18583,7.196667 0.0353,3.4925 1.41111,5.573889 4.90361,7.337778 1.44639,0.705556 4.26861,0.564445 5.99722,-0.3175 4.40972,-2.293055 5.67972,-8.607778 2.39889,-12.170833 -1.09361,-1.164167 -4.05694,-2.504723 -5.53861,-2.469445 -0.67028,0 -1.83444,0.211667 -2.57528,0.423333 z m 4.02167,4.938889 c 0.98778,0.670278 1.23472,1.058334 1.30528,2.2225 0.0705,1.199445 -0.0706,1.622778 -0.9525,2.540001 -1.19945,1.305277 -2.36361,1.446389 -3.66889,0.423333 -1.05833,-0.846667 -1.79917,-2.8575 -1.48167,-3.915834 0.24695,-0.776111 2.11667,-2.081389 3.03389,-2.081389 0.3175,0 1.09361,0.352778 1.76389,0.811389 z"
       id="path127"
       style="fill:#052032;fill-opacity:1;stroke-width:0.0352778" />
    <path
       d="m 87.994117,35.844793 c -0.105834,0.07056 -0.176389,7.020278 -0.176389,15.381112 0,11.853334 0.105833,15.345834 0.458611,15.628057 0.564444,0.458611 30.127221,0.493889 30.973891,0.03528 0.56444,-0.282222 0.635,-1.5875 0.635,-15.663334 l 0.0353,-15.345834 h -0.9525 c -0.56444,0 -7.69056,-0.07056 -15.91028,-0.105834 -8.184444,-0.07055 -14.993056,-0.03528 -15.063611,0.07056 z m 26.634723,15.73389 V 62.338406 H 103.69273 92.791895 L 92.686061,51.578683 92.580228,40.81896 h 11.041942 11.00667 z"
       id="path129"
       style="fill:#052032;fill-opacity:1;stroke-width:0.0352778" />
    <path
       d="m 53.351337,42.441738 c -1.023056,1.023055 -1.023056,1.622778 0,2.786944 l 0.811389,0.952501 15.240001,0.141111 15.240001,0.105833 V 44.31146 c 0,-1.375833 -0.141112,-2.151944 -0.423334,-2.257778 C 83.97245,41.983132 77.093283,41.877293 68.979393,41.77146 L 54.162726,41.630349 Z"
       id="path131"
       style="fill:#052032;fill-opacity:1;stroke-width:0.0352778" />
    <path
       d="m 130.68023,41.877293 -7.76111,0.176389 -0.10583,2.2225 -0.10584,2.187223 16.15722,-0.211667 16.15723,-0.211667 0.81139,-0.881944 c 0.98777,-1.093611 0.98777,-1.905 -0.0353,-2.8575 -0.81139,-0.740834 -1.02306,-0.776111 -9.10167,-0.705556 -4.55083,0.03528 -11.7475,0.176389 -16.01611,0.282222 z"
       id="path133"
       style="fill:#052032;fill-opacity:1;stroke-width:0.0352778" />
    <path
       d="m 54.303837,50.238127 c -1.763889,0.670278 -2.328334,2.645834 -1.093611,3.774723 0.599722,0.564444 2.081389,0.599722 16.05139,0.670278 l 15.381112,0.07055 v -2.2225 -2.187222 H 70.743282 c -7.62,0 -14.322778,-0.07056 -14.887223,-0.176389 -0.564444,-0.07056 -1.27,-0.07056 -1.552222,0.07055 z"
       id="path135"
       style="fill:#052032;fill-opacity:1;stroke-width:0.0352778" />
    <path
       d="m 137.73578,50.343961 -14.81666,0.176388 -0.10583,1.975556 c -0.0706,1.693334 0,2.010834 0.52916,2.151945 0.35278,0.105833 7.69056,0.105833 16.29833,0 l 15.62806,-0.176389 0.67028,-1.093611 c 0.84667,-1.375834 0.84667,-1.481667 -0.21167,-2.504723 -0.59972,-0.635 -1.16416,-0.846666 -2.01083,-0.811389 -0.635,0.07056 -7.83167,0.176389 -15.98084,0.282223 z"
       id="path137"
       style="fill:#052032;fill-opacity:1;stroke-width:0.0352778" />
    <path
       d="m 54.09217,58.916461 c -1.658056,0.846667 -1.975556,2.293056 -0.811389,3.457223 0.740834,0.740833 0.881945,0.740833 16.05139,0.635 l 15.310557,-0.141112 v -1.975555 -1.975556 l -4.30389,-0.246944 C 73.883005,58.316739 54.868281,58.493128 54.09217,58.916461 Z"
       id="path139"
       style="fill:#052032;fill-opacity:1;stroke-width:0.0352778" />
    <path
       d="m 126.23523,58.704794 -3.06917,0.141112 -0.17639,1.128889 c -0.10583,0.635 -0.10583,1.5875 0,2.116666 l 0.17639,0.9525 h 16.01611 15.98084 l 0.52916,-0.776111 c 0.77612,-1.128889 0.70556,-2.151944 -0.24694,-3.033889 -0.81139,-0.776111 -0.91722,-0.776111 -13.51139,-0.705555 -6.94972,0.03528 -14.04055,0.141111 -15.69861,0.176388 z"
       id="path141"
       style="fill:#052032;fill-opacity:1;stroke-width:0.0352778" />
    <path
       d="m 76.49356,68.159239 c -1.869722,0.599723 -4.162778,2.751667 -4.797778,4.480279 -0.670277,1.869722 -0.564444,5.044722 0.211667,6.596944 0.811389,1.587501 2.8575,3.457223 4.1275,3.774723 0.493889,0.141111 1.975556,0.141111 3.316112,0.07055 3.245555,-0.246944 4.938889,-1.375833 6.35,-4.339167 C 88.523283,72.886457 82.70245,66.183679 76.49356,68.159234 Z m 4.480278,5.609168 c 0.670278,0.670277 1.199445,1.552222 1.199445,1.975555 0,0.881945 -2.116667,3.175 -2.928056,3.175 -1.164166,0 -2.398889,-0.740833 -3.069167,-1.834444 -0.9525,-1.5875 -0.881944,-2.257778 0.3175,-3.4925 1.446389,-1.446389 2.928056,-1.375834 4.480278,0.176389 z"
       id="path143"
       style="fill:#052032;fill-opacity:1;stroke-width:0.0352778" />
    <path
       d="m 126.7644,68.018128 c -1.65806,0.388056 -4.1275,2.328334 -4.93889,3.915834 -0.635,1.234722 -0.74084,4.938889 -0.17639,6.385278 2.04611,5.256389 9.31333,6.561667 12.87639,2.328334 1.94027,-2.293056 2.39889,-4.586112 1.55222,-7.514168 -0.635,-2.081389 -3.21028,-4.550833 -5.29167,-5.08 -1.86972,-0.458611 -2.01083,-0.458611 -4.02166,-0.03528 z m 4.16277,5.609167 c 0.91723,0.9525 1.05834,1.27 0.88195,2.363612 -0.49389,2.963333 -3.31611,3.951111 -4.97417,1.763889 -1.23472,-1.622778 -1.23472,-3.457223 0,-4.445001 1.37584,-1.058333 2.82222,-0.9525 4.09222,0.3175 z"
       id="path145"
       style="fill:#052032;fill-opacity:1;stroke-width:0.0352778" />
    <path
       d="m 93.532728,70.170073 c -0.3175,0.3175 -0.423333,2.328333 -0.423333,7.514167 0,7.055556 0,7.126112 0.846667,7.902223 1.023055,0.9525 1.975555,0.776111 2.822222,-0.493889 0.493889,-0.740833 0.564444,-1.940278 0.493889,-8.008056 l -0.105833,-7.16139 -1.587501,-0.105833 c -0.917222,-0.07055 -1.763889,0.07056 -2.046111,0.352778 z"
       id="path147"
       style="fill:#052032;fill-opacity:1;stroke-width:0.0352778" />
    <path
       d="m 101.9994,70.170073 c -0.28223,0.282222 -0.42334,2.293056 -0.42334,6.773334 0,5.3975 0.10584,6.561667 0.635,7.584722 0.91722,1.869723 1.65806,2.151945 2.71639,1.093612 0.84667,-0.881945 0.84667,-0.9525 0.9525,-8.043334 0.10584,-7.937501 0.14111,-7.831667 -2.18722,-7.831667 -0.70556,0 -1.44639,0.176388 -1.69333,0.423333 z"
       id="path149"
       style="fill:#052032;fill-opacity:1;stroke-width:0.0352778" />
    <path
       d="m 111.06579,69.958406 c -0.84667,0.246945 -0.9525,1.622778 -0.77612,8.43139 0.21167,6.455833 0.49389,7.584722 2.01084,7.584722 0.42333,0 1.05833,-0.282222 1.41111,-0.670277 0.49389,-0.564445 0.56444,-1.516945 0.49389,-8.008056 l -0.10584,-7.373057 -1.23472,-0.07055 c -0.67028,0 -1.48166,0.03528 -1.79916,0.105833 z"
       id="path151"
       style="fill:#052032;fill-opacity:1;stroke-width:0.0352778" />
    <path
       d="m 41.356885,94.547019 c -0.211667,0.352778 -0.07056,19.014721 0.141111,20.425831 l 0.176389,0.98778 h 7.549445 7.549445 v -2.11667 -2.11666 h -4.833056 c -6.526389,0 -6.455834,0.0353 -6.455834,-2.32834 v -1.905 h 4.727223 4.727222 l 0.141111,-1.97555 c 0.03528,-1.09361 0.03528,-2.04611 -0.03528,-2.11667 -0.07056,-0.0706 -2.257778,-0.14111 -4.868334,-0.14111 h -4.691945 v -2.29305 -2.293061 h 5.468056 5.503334 L 56.349938,96.522575 56.244105,94.37063 48.906327,94.33535 c -4.056945,-0.03528 -7.443612,0.07056 -7.549445,0.211667 z"
       id="path155"
       style="fill:#052032;fill-opacity:1;stroke-width:0.0352778" />
    <path
       d="m 165.32309,94.723408 c -0.10583,0.282222 -0.0705,3.175 0.0706,6.455832 0.14111,3.28084 0.14111,5.96195 -0.0353,5.92667 -0.14111,0 -0.88195,-0.91722 -1.62278,-2.01083 -1.5875,-2.39889 -5.36222,-7.055561 -7.40833,-9.172228 -1.27,-1.305278 -1.65806,-1.481666 -2.99861,-1.481666 h -1.51697 l 0.21167,10.301114 c 0.14111,5.67972 0.28222,10.54805 0.38805,10.79499 0.10584,0.3175 0.70556,0.42334 1.97556,0.35278 l 1.86972,-0.10583 v -6.42055 c 0,-3.4925 0.14111,-6.31473 0.28222,-6.20889 0.14111,0.10583 2.08139,2.43416 4.30389,5.18583 5.04473,6.31472 6.45584,7.62 8.18445,7.62 h 1.27 l -0.21167,-5.04472 c -0.14111,-2.75167 -0.24694,-7.62 -0.24694,-10.83028 v -5.820833 h -2.15195 c -1.48166,0 -2.2225,0.141111 -2.36361,0.458611 z"
       id="path157"
       style="fill:#052032;fill-opacity:1;stroke-width:0.0352778" />
    <path
       d="m 18.849661,105.20091 v 10.795 l 2.2225,-0.10584 2.187223,-0.10583 -0.07056,-3.21028 -0.07056,-3.21027 1.5875,-0.35278 c 1.552222,-0.35278 1.622778,-0.35278 2.54,0.84667 0.529166,0.70555 1.552222,1.97555 2.293055,2.85749 0.740834,0.84667 1.5875,1.94028 1.905,2.39889 0.493889,0.74083 0.811389,0.84667 2.963334,0.84667 1.340556,0 2.434167,-0.10584 2.434167,-0.28222 0,-0.35278 -1.5875,-2.71639 -3.139723,-4.65667 -2.434166,-2.99861 -2.328333,-2.78694 -1.305277,-3.175 1.093611,-0.38805 2.928055,-3.13972 3.245555,-4.79778 0.3175,-1.72861 -0.458611,-4.444996 -1.693333,-5.961941 -1.905,-2.257778 -3.175,-2.645833 -9.525,-2.645833 h -5.573889 z m 11.253612,-5.221113 c 1.552222,1.411113 1.693333,2.575283 0.564444,3.915833 -0.917222,1.12889 -0.987778,1.12889 -4.092222,1.12889 h -3.139722 v -2.43417 c 0,-1.34055 -0.105834,-2.681109 -0.211667,-2.998609 -0.176389,-0.493888 0.211667,-0.564444 2.822222,-0.564444 2.822223,0 3.104445,0.07056 4.056945,0.9525 z"
       id="path159"
       style="fill:#052032;fill-opacity:1;stroke-width:0.0352778" />
    <path
       d="m 61.006609,96.734241 v 2.257778 l 3.104445,-0.07056 3.069167,-0.07056 0.176388,8.466671 0.176389,8.46666 h 2.116667 2.116667 l -0.141111,-8.5725 -0.105834,-8.53722 h 3.210278 3.210278 v -2.116667 -2.116666 h -8.466667 -8.466667 z"
       id="path161"
       style="fill:#052032;fill-opacity:1;stroke-width:0.0352778" />
    <path
       d="m 87.006333,95.534797 c -3.210278,1.5875 -4.974167,3.986389 -5.644445,7.725833 -0.881944,4.72722 1.5875,9.24277 6.455834,11.7475 5.432757,2.82222 12.029671,0.0353 14.322718,-6.06778 1.05834,-2.82222 0.84667,-6.56166 -0.56444,-9.136942 -1.869717,-3.421945 -5.432756,-5.362222 -9.877732,-5.362222 -2.116657,0 -2.892768,0.176388 -4.691935,1.093611 z m 6.455816,3.527778 c 2.575265,0.705555 4.762473,3.563055 4.762473,6.244165 0,1.69334 -1.622771,4.37445 -3.245542,5.36222 -2.434145,1.48167 -6.208858,0.49389 -7.937469,-2.08138 -2.998611,-4.48028 -0.917222,-8.748894 4.833047,-9.877783 0.10583,0 0.811384,0.141111 1.587491,0.352778 z"
       id="path163"
       style="fill:#052032;fill-opacity:1;stroke-width:0.0352778" />
    <path
       d="m 107.39683,104.38952 c 0,5.50333 -0.10583,10.33639 -0.21166,10.75972 -0.21167,0.77611 -0.14111,0.81139 2.29305,0.81139 h 2.50472 v -3.35139 -3.35139 h 1.41112 c 0.9525,0 1.48166,0.17639 1.72861,0.59973 0.17639,0.35277 1.44639,1.905 2.78694,3.42194 l 2.46944,2.82222 2.08139,-0.10583 c 1.12889,-0.0353 2.11667,-0.14112 2.18723,-0.24695 0.0705,-0.0705 -0.28223,-0.635 -0.77612,-1.27 -0.52916,-0.635 -1.72861,-2.2225 -2.68111,-3.4925 l -1.72861,-2.32833 1.19945,-0.42333 c 1.94027,-0.70556 3.03389,-2.71639 3.24555,-5.78556 0.10584,-1.905 0,-2.857499 -0.38805,-3.63361 -0.67028,-1.305278 -3.13973,-3.563055 -4.33917,-4.021667 -0.49389,-0.211666 -3.35139,-0.352777 -6.35,-0.352777 h -5.43278 z m 10.51278,-5.009445 c 1.55222,0.952505 1.97556,2.151945 1.30528,3.739445 -0.635,1.51694 -1.62278,1.905 -4.79778,1.905 h -2.43417 v -2.96333 -2.998615 l 1.16417,-0.141111 c 2.57528,-0.3175 3.63361,-0.211667 4.7625,0.458611 z"
       id="path165"
       style="fill:#052032;fill-opacity:1;stroke-width:0.0352778" />
    <path
       d="m 180.42198,99.627019 c -2.11666,5.362221 -2.68111,6.702781 -5.32694,12.417781 -0.84667,1.79916 -1.55222,3.45722 -1.55222,3.59833 0,0.17639 0.9525,0.3175 2.15194,0.3175 h 2.15195 l 1.05833,-2.43417 1.09361,-2.46944 3.91583,0.14111 c 2.15195,0.0706 4.02167,0.14111 4.16278,0.14111 0.14111,0.0353 0.56445,0.9525 0.98778,2.04611 0.42333,1.12889 0.91722,2.2225 1.09361,2.43417 0.28222,0.35277 3.73945,0.28222 4.16278,-0.0706 0.17639,-0.14111 -0.52917,-2.04611 -2.78695,-7.54944 -0.88194,-2.2225 -2.50472,-6.24417 -3.56305,-8.925279 l -1.905,-4.833055 h -1.79917 -1.79916 z m 5.29167,4.938891 c 0.56445,1.62278 0.91722,2.99861 0.84667,3.06917 -0.0706,0.10583 -1.16417,0.0706 -2.36361,-0.0353 -2.57528,-0.24695 -2.54,0.0353 -0.91723,-4.26862 1.05834,-2.89277 1.02306,-2.92805 2.43417,1.23473 z"
       id="path167"
       style="fill:#052032;fill-opacity:1;stroke-width:0.0352778" />
    <path
       d="m 142.22536,94.682579 c -0.10583,0.28222 -0.0705,3.175 0.0706,6.455831 0.14111,3.28084 0.14111,5.96195 -0.0353,5.92667 -0.14111,0 -0.88195,-0.91722 -1.62278,-2.01083 -1.5875,-2.39889 -5.36222,-7.055561 -7.40833,-9.172231 -1.27,-1.30527 -1.65806,-1.48166 -2.99861,-1.48166 h -1.51697 l 0.21167,10.301111 c 0.14111,5.67972 0.28222,10.54805 0.38805,10.79499 0.10584,0.3175 0.70556,0.42334 1.97556,0.35278 l 1.86972,-0.10583 v -6.42055 c 0,-3.4925 0.14111,-6.31473 0.28222,-6.20889 0.14111,0.10583 2.08139,2.43416 4.30389,5.18583 5.04473,6.31472 6.45584,7.62 8.18445,7.62 h 1.27 l -0.21167,-5.04472 c -0.14111,-2.75167 -0.24694,-7.62 -0.24694,-10.83028 v -5.820831 h -2.15195 c -1.48166,0 -2.2225,0.14111 -2.36361,0.45861 z"
       id="path6031"
       style="fill:#052032;fill-opacity:1;stroke-width:0.0352778" />
  </g>
</svg>
